<mxfile host="Electron" modified="2024-10-17T09:58:46.309Z" agent="Mozilla/5.0 (Windows NT 10.0; Win64; x64) AppleWebKit/537.36 (KHTML, like Gecko) draw.io/23.1.5 Chrome/120.0.6099.109 Electron/28.1.0 Safari/537.36" etag="obY4fI8hwpH5EGmw4w4N" version="23.1.5" type="device">
  <diagram name="Page-1" id="hzpra2lofDzAdFRERjlR">
    <mxGraphModel dx="2100" dy="1242" grid="1" gridSize="10" guides="1" tooltips="1" connect="1" arrows="1" fold="1" page="1" pageScale="1" pageWidth="827" pageHeight="1169" math="0" shadow="0">
      <root>
        <mxCell id="0" />
        <mxCell id="1" parent="0" />
        <mxCell id="qseJRWOYaKlsRWUmHyyh-8" value="Fililalbestellsystem&lt;span style=&quot;white-space: pre;&quot;&gt;&#x9;&lt;/span&gt;" style="swimlane;html=1;startSize=20;fontStyle=0;collapsible=0;horizontal=0;swimlaneLine=1;swimlaneFillColor=#ffffff;strokeWidth=2;whiteSpace=wrap;" vertex="1" parent="1">
          <mxGeometry x="30" y="500" width="1760" height="480" as="geometry" />
        </mxCell>
        <mxCell id="qseJRWOYaKlsRWUmHyyh-9" value="" style="edgeStyle=orthogonalEdgeStyle;rounded=0;orthogonalLoop=1;jettySize=auto;html=1;" edge="1" parent="qseJRWOYaKlsRWUmHyyh-8" source="qseJRWOYaKlsRWUmHyyh-10" target="qseJRWOYaKlsRWUmHyyh-46">
          <mxGeometry relative="1" as="geometry" />
        </mxCell>
        <mxCell id="qseJRWOYaKlsRWUmHyyh-10" value="Bestellung speichern" style="shape=ext;rounded=1;html=1;whiteSpace=wrap;" vertex="1" parent="qseJRWOYaKlsRWUmHyyh-8">
          <mxGeometry x="370" y="230" width="120" height="80" as="geometry" />
        </mxCell>
        <mxCell id="qseJRWOYaKlsRWUmHyyh-11" value="" style="edgeStyle=orthogonalEdgeStyle;rounded=0;orthogonalLoop=1;jettySize=auto;html=1;" edge="1" parent="qseJRWOYaKlsRWUmHyyh-8" source="qseJRWOYaKlsRWUmHyyh-12" target="qseJRWOYaKlsRWUmHyyh-21">
          <mxGeometry relative="1" as="geometry" />
        </mxCell>
        <mxCell id="qseJRWOYaKlsRWUmHyyh-12" value="Lokalen Lagerbestand prüfen" style="shape=ext;rounded=1;html=1;whiteSpace=wrap;" vertex="1" parent="qseJRWOYaKlsRWUmHyyh-8">
          <mxGeometry x="720" y="165" width="120" height="80" as="geometry" />
        </mxCell>
        <mxCell id="qseJRWOYaKlsRWUmHyyh-13" value="Kundenverwaltung" style="shape=datastore;html=1;labelPosition=center;verticalLabelPosition=bottom;align=center;verticalAlign=top;" vertex="1" parent="qseJRWOYaKlsRWUmHyyh-8">
          <mxGeometry x="50" y="245" width="50" height="50" as="geometry" />
        </mxCell>
        <mxCell id="qseJRWOYaKlsRWUmHyyh-14" value="Produktkatalog überprüfen" style="shape=ext;rounded=1;html=1;whiteSpace=wrap;" vertex="1" parent="qseJRWOYaKlsRWUmHyyh-8">
          <mxGeometry x="150" y="20" width="120" height="80" as="geometry" />
        </mxCell>
        <mxCell id="qseJRWOYaKlsRWUmHyyh-15" value="Produktkatalog" style="shape=datastore;html=1;labelPosition=center;verticalLabelPosition=bottom;align=center;verticalAlign=top;" vertex="1" parent="qseJRWOYaKlsRWUmHyyh-8">
          <mxGeometry x="50" y="35" width="50" height="50" as="geometry" />
        </mxCell>
        <mxCell id="qseJRWOYaKlsRWUmHyyh-16" value="Produkt im Sortiment?" style="points=[[0.25,0.25,0],[0.5,0,0],[0.75,0.25,0],[1,0.5,0],[0.75,0.75,0],[0.5,1,0],[0.25,0.75,0],[0,0.5,0]];shape=mxgraph.bpmn.gateway2;html=1;verticalLabelPosition=middle;labelBackgroundColor=#ffffff;verticalAlign=middle;align=right;perimeter=rhombusPerimeter;outlineConnect=0;outline=none;symbol=none;gwType=exclusive;labelPosition=left;" vertex="1" parent="qseJRWOYaKlsRWUmHyyh-8">
          <mxGeometry x="185" y="140" width="50" height="50" as="geometry" />
        </mxCell>
        <mxCell id="qseJRWOYaKlsRWUmHyyh-17" value="" style="edgeStyle=orthogonalEdgeStyle;rounded=0;orthogonalLoop=1;jettySize=auto;html=1;" edge="1" parent="qseJRWOYaKlsRWUmHyyh-8" source="qseJRWOYaKlsRWUmHyyh-18" target="qseJRWOYaKlsRWUmHyyh-31">
          <mxGeometry relative="1" as="geometry" />
        </mxCell>
        <mxCell id="qseJRWOYaKlsRWUmHyyh-18" value="Artikel versenden" style="html=1;whiteSpace=wrap;rounded=1;" vertex="1" parent="qseJRWOYaKlsRWUmHyyh-8">
          <mxGeometry x="1130" y="165" width="120" height="80" as="geometry" />
        </mxCell>
        <mxCell id="qseJRWOYaKlsRWUmHyyh-19" style="edgeStyle=orthogonalEdgeStyle;rounded=0;orthogonalLoop=1;jettySize=auto;html=1;exitX=1;exitY=0.5;exitDx=0;exitDy=0;exitPerimeter=0;entryX=0;entryY=0.5;entryDx=0;entryDy=0;" edge="1" parent="qseJRWOYaKlsRWUmHyyh-8" source="qseJRWOYaKlsRWUmHyyh-20" target="qseJRWOYaKlsRWUmHyyh-10">
          <mxGeometry relative="1" as="geometry" />
        </mxCell>
        <mxCell id="qseJRWOYaKlsRWUmHyyh-20" value="Kunde überprüfen" style="points=[[0.25,0,0],[0.5,0,0],[0.75,0,0],[1,0.25,0],[1,0.5,0],[1,0.75,0],[0.75,1,0],[0.5,1,0],[0.25,1,0],[0,0.75,0],[0,0.5,0],[0,0.25,0]];shape=mxgraph.bpmn.task;whiteSpace=wrap;rectStyle=rounded;size=10;html=1;container=1;expand=0;collapsible=0;taskMarker=abstract;isLoopSub=1;" vertex="1" parent="qseJRWOYaKlsRWUmHyyh-8">
          <mxGeometry x="150" y="230" width="120" height="80" as="geometry" />
        </mxCell>
        <mxCell id="qseJRWOYaKlsRWUmHyyh-21" value="Alle Artikel im Lager vorhanden?" style="points=[[0.25,0.25,0],[0.5,0,0],[0.75,0.25,0],[1,0.5,0],[0.75,0.75,0],[0.5,1,0],[0.25,0.75,0],[0,0.5,0]];shape=mxgraph.bpmn.gateway2;html=1;verticalLabelPosition=top;labelBackgroundColor=#ffffff;verticalAlign=bottom;align=center;perimeter=rhombusPerimeter;outlineConnect=0;outline=none;symbol=none;gwType=exclusive;labelPosition=center;" vertex="1" parent="qseJRWOYaKlsRWUmHyyh-8">
          <mxGeometry x="920" y="180" width="50" height="50" as="geometry" />
        </mxCell>
        <mxCell id="qseJRWOYaKlsRWUmHyyh-22" value="" style="edgeStyle=orthogonalEdgeStyle;rounded=0;orthogonalLoop=1;jettySize=auto;html=1;" edge="1" parent="qseJRWOYaKlsRWUmHyyh-8" source="qseJRWOYaKlsRWUmHyyh-23" target="qseJRWOYaKlsRWUmHyyh-18">
          <mxGeometry relative="1" as="geometry" />
        </mxCell>
        <mxCell id="qseJRWOYaKlsRWUmHyyh-23" value="" style="points=[[0.25,0.25,0],[0.5,0,0],[0.75,0.25,0],[1,0.5,0],[0.75,0.75,0],[0.5,1,0],[0.25,0.75,0],[0,0.5,0]];shape=mxgraph.bpmn.gateway2;html=1;verticalLabelPosition=top;labelBackgroundColor=#ffffff;verticalAlign=bottom;align=center;perimeter=rhombusPerimeter;outlineConnect=0;outline=none;symbol=none;gwType=exclusive;labelPosition=center;" vertex="1" parent="qseJRWOYaKlsRWUmHyyh-8">
          <mxGeometry x="1050" y="180" width="50" height="50" as="geometry" />
        </mxCell>
        <mxCell id="qseJRWOYaKlsRWUmHyyh-24" value="Ja" style="edgeStyle=orthogonalEdgeStyle;rounded=0;html=1;jettySize=auto;orthogonalLoop=1;exitX=1;exitY=0.5;exitDx=0;exitDy=0;exitPerimeter=0;entryX=0;entryY=0.5;entryDx=0;entryDy=0;entryPerimeter=0;" edge="1" parent="qseJRWOYaKlsRWUmHyyh-8" source="qseJRWOYaKlsRWUmHyyh-21" target="qseJRWOYaKlsRWUmHyyh-23">
          <mxGeometry relative="1" as="geometry">
            <Array as="points" />
            <mxPoint x="440" y="310" as="sourcePoint" />
            <mxPoint x="520" y="380" as="targetPoint" />
          </mxGeometry>
        </mxCell>
        <mxCell id="qseJRWOYaKlsRWUmHyyh-25" value="Nachbestellung im Zentrallager tätigen" style="points=[[0.25,0,0],[0.5,0,0],[0.75,0,0],[1,0.25,0],[1,0.5,0],[1,0.75,0],[0.75,1,0],[0.5,1,0],[0.25,1,0],[0,0.75,0],[0,0.5,0],[0,0.25,0]];shape=mxgraph.bpmn.task;whiteSpace=wrap;rectStyle=rounded;size=10;html=1;container=1;expand=0;collapsible=0;taskMarker=abstract;isLoopSub=1;" vertex="1" parent="qseJRWOYaKlsRWUmHyyh-8">
          <mxGeometry x="785" y="370" width="120" height="80" as="geometry" />
        </mxCell>
        <mxCell id="qseJRWOYaKlsRWUmHyyh-26" value="Nein" style="edgeStyle=orthogonalEdgeStyle;rounded=0;html=1;jettySize=auto;orthogonalLoop=1;exitX=0.5;exitY=1;exitDx=0;exitDy=0;exitPerimeter=0;entryX=0.5;entryY=0;entryDx=0;entryDy=0;entryPerimeter=0;" edge="1" parent="qseJRWOYaKlsRWUmHyyh-8" source="qseJRWOYaKlsRWUmHyyh-21" target="qseJRWOYaKlsRWUmHyyh-25">
          <mxGeometry relative="1" as="geometry">
            <mxPoint x="377.5" y="500" as="sourcePoint" />
            <mxPoint x="415" y="520.0000000000002" as="targetPoint" />
            <Array as="points" />
          </mxGeometry>
        </mxCell>
        <mxCell id="qseJRWOYaKlsRWUmHyyh-27" value="" style="edgeStyle=orthogonalEdgeStyle;rounded=0;orthogonalLoop=1;jettySize=auto;html=1;" edge="1" parent="qseJRWOYaKlsRWUmHyyh-8" source="qseJRWOYaKlsRWUmHyyh-28" target="qseJRWOYaKlsRWUmHyyh-23">
          <mxGeometry relative="1" as="geometry" />
        </mxCell>
        <mxCell id="qseJRWOYaKlsRWUmHyyh-28" value="Nachbestellung eingetroffen" style="points=[[0.145,0.145,0],[0.5,0,0],[0.855,0.145,0],[1,0.5,0],[0.855,0.855,0],[0.5,1,0],[0.145,0.855,0],[0,0.5,0]];shape=mxgraph.bpmn.event;html=1;verticalLabelPosition=bottom;labelBackgroundColor=#ffffff;verticalAlign=top;align=center;perimeter=ellipsePerimeter;outlineConnect=0;aspect=fixed;outline=throwing;symbol=general;" vertex="1" parent="qseJRWOYaKlsRWUmHyyh-8">
          <mxGeometry x="970" y="385" width="50" height="50" as="geometry" />
        </mxCell>
        <mxCell id="qseJRWOYaKlsRWUmHyyh-29" style="edgeStyle=orthogonalEdgeStyle;rounded=0;html=1;jettySize=auto;orthogonalLoop=1;exitX=1;exitY=0.5;exitDx=0;exitDy=0;exitPerimeter=0;entryX=0;entryY=0.5;entryDx=0;entryDy=0;entryPerimeter=0;" edge="1" parent="qseJRWOYaKlsRWUmHyyh-8" source="qseJRWOYaKlsRWUmHyyh-25" target="qseJRWOYaKlsRWUmHyyh-28">
          <mxGeometry relative="1" as="geometry">
            <mxPoint x="550" y="680" as="sourcePoint" />
            <mxPoint x="595" y="865" as="targetPoint" />
          </mxGeometry>
        </mxCell>
        <mxCell id="qseJRWOYaKlsRWUmHyyh-67" style="edgeStyle=orthogonalEdgeStyle;rounded=0;orthogonalLoop=1;jettySize=auto;html=1;exitX=0.5;exitY=1;exitDx=0;exitDy=0;exitPerimeter=0;entryX=0;entryY=0.5;entryDx=0;entryDy=0;" edge="1" parent="qseJRWOYaKlsRWUmHyyh-8" source="qseJRWOYaKlsRWUmHyyh-31" target="qseJRWOYaKlsRWUmHyyh-33">
          <mxGeometry relative="1" as="geometry" />
        </mxCell>
        <mxCell id="qseJRWOYaKlsRWUmHyyh-31" value="" style="points=[[0.25,0.25,0],[0.5,0,0],[0.75,0.25,0],[1,0.5,0],[0.75,0.75,0],[0.5,1,0],[0.25,0.75,0],[0,0.5,0]];shape=mxgraph.bpmn.gateway2;html=1;verticalLabelPosition=bottom;labelBackgroundColor=#ffffff;verticalAlign=top;align=center;perimeter=rhombusPerimeter;outlineConnect=0;outline=none;symbol=none;gwType=parallel;" vertex="1" parent="qseJRWOYaKlsRWUmHyyh-8">
          <mxGeometry x="1280" y="180" width="50" height="50" as="geometry" />
        </mxCell>
        <mxCell id="qseJRWOYaKlsRWUmHyyh-32" value="" style="edgeStyle=orthogonalEdgeStyle;rounded=0;orthogonalLoop=1;jettySize=auto;html=1;" edge="1" parent="qseJRWOYaKlsRWUmHyyh-8" source="qseJRWOYaKlsRWUmHyyh-33" target="qseJRWOYaKlsRWUmHyyh-34">
          <mxGeometry relative="1" as="geometry" />
        </mxCell>
        <mxCell id="qseJRWOYaKlsRWUmHyyh-33" value="Rechnung erstellen" style="html=1;whiteSpace=wrap;rounded=1;" vertex="1" parent="qseJRWOYaKlsRWUmHyyh-8">
          <mxGeometry x="1340" y="305" width="120" height="80" as="geometry" />
        </mxCell>
        <mxCell id="qseJRWOYaKlsRWUmHyyh-34" value="Rechnung versenden" style="html=1;whiteSpace=wrap;rounded=1;" vertex="1" parent="qseJRWOYaKlsRWUmHyyh-8">
          <mxGeometry x="1490" y="305" width="120" height="80" as="geometry" />
        </mxCell>
        <mxCell id="qseJRWOYaKlsRWUmHyyh-35" value="lokalen Lagerbestand aktualisieren" style="points=[[0.25,0,0],[0.5,0,0],[0.75,0,0],[1,0.25,0],[1,0.5,0],[1,0.75,0],[0.75,1,0],[0.5,1,0],[0.25,1,0],[0,0.75,0],[0,0.5,0],[0,0.25,0]];shape=mxgraph.bpmn.task;whiteSpace=wrap;rectStyle=rounded;size=10;html=1;container=1;expand=0;collapsible=0;taskMarker=abstract;isLoopSub=1;" vertex="1" parent="qseJRWOYaKlsRWUmHyyh-8">
          <mxGeometry x="1380" y="90" width="120" height="80" as="geometry" />
        </mxCell>
        <mxCell id="qseJRWOYaKlsRWUmHyyh-36" value="Bestellungen" style="shape=datastore;html=1;labelPosition=center;verticalLabelPosition=bottom;align=center;verticalAlign=top;" vertex="1" parent="qseJRWOYaKlsRWUmHyyh-8">
          <mxGeometry x="480" y="395" width="50" height="50" as="geometry" />
        </mxCell>
        <mxCell id="qseJRWOYaKlsRWUmHyyh-37" value="Bestellung" style="shape=mxgraph.bpmn.data;labelPosition=left;verticalLabelPosition=middle;align=right;verticalAlign=middle;size=15;html=1;" vertex="1" parent="qseJRWOYaKlsRWUmHyyh-8">
          <mxGeometry x="370" y="385" width="40" height="60" as="geometry" />
        </mxCell>
        <mxCell id="qseJRWOYaKlsRWUmHyyh-38" style="edgeStyle=orthogonalEdgeStyle;rounded=0;orthogonalLoop=1;jettySize=auto;html=1;exitX=0.5;exitY=1;exitDx=0;exitDy=0;entryX=0.5;entryY=0;entryDx=0;entryDy=0;entryPerimeter=0;" edge="1" parent="qseJRWOYaKlsRWUmHyyh-8" source="qseJRWOYaKlsRWUmHyyh-14" target="qseJRWOYaKlsRWUmHyyh-16">
          <mxGeometry relative="1" as="geometry" />
        </mxCell>
        <mxCell id="qseJRWOYaKlsRWUmHyyh-39" value="Ja" style="edgeStyle=orthogonalEdgeStyle;rounded=0;orthogonalLoop=1;jettySize=auto;html=1;exitX=0.5;exitY=1;exitDx=0;exitDy=0;exitPerimeter=0;entryX=0.5;entryY=0;entryDx=0;entryDy=0;entryPerimeter=0;" edge="1" parent="qseJRWOYaKlsRWUmHyyh-8" source="qseJRWOYaKlsRWUmHyyh-16" target="qseJRWOYaKlsRWUmHyyh-20">
          <mxGeometry relative="1" as="geometry" />
        </mxCell>
        <mxCell id="qseJRWOYaKlsRWUmHyyh-41" value="" style="points=[[0.25,0.25,0],[0.5,0,0],[0.75,0.25,0],[1,0.5,0],[0.75,0.75,0],[0.5,1,0],[0.25,0.75,0],[0,0.5,0]];shape=mxgraph.bpmn.gateway2;html=1;verticalLabelPosition=bottom;labelBackgroundColor=#ffffff;verticalAlign=top;align=center;perimeter=rhombusPerimeter;outlineConnect=0;outline=none;symbol=none;gwType=parallel;" vertex="1" parent="qseJRWOYaKlsRWUmHyyh-8">
          <mxGeometry x="1620" y="180" width="50" height="50" as="geometry" />
        </mxCell>
        <mxCell id="qseJRWOYaKlsRWUmHyyh-45" value="" style="edgeStyle=orthogonalEdgeStyle;rounded=0;orthogonalLoop=1;jettySize=auto;html=1;" edge="1" parent="qseJRWOYaKlsRWUmHyyh-8" source="qseJRWOYaKlsRWUmHyyh-46" target="qseJRWOYaKlsRWUmHyyh-12">
          <mxGeometry relative="1" as="geometry" />
        </mxCell>
        <mxCell id="qseJRWOYaKlsRWUmHyyh-46" value="Bestellbestätigung erstellen" style="shape=ext;rounded=1;html=1;whiteSpace=wrap;" vertex="1" parent="qseJRWOYaKlsRWUmHyyh-8">
          <mxGeometry x="560" y="165" width="120" height="80" as="geometry" />
        </mxCell>
        <mxCell id="qseJRWOYaKlsRWUmHyyh-47" value="" style="edgeStyle=elbowEdgeStyle;fontSize=12;html=1;endFill=0;startFill=0;endSize=6;startSize=6;dashed=1;dashPattern=1 4;endArrow=openThin;startArrow=none;rounded=0;entryX=-0.005;entryY=0.558;entryDx=0;entryDy=0;exitX=0;exitY=0;exitDx=40;exitDy=37.5;exitPerimeter=0;entryPerimeter=0;" edge="1" parent="qseJRWOYaKlsRWUmHyyh-8" source="qseJRWOYaKlsRWUmHyyh-37" target="qseJRWOYaKlsRWUmHyyh-36">
          <mxGeometry width="160" relative="1" as="geometry">
            <mxPoint x="400" y="240" as="sourcePoint" />
            <mxPoint x="400" y="205" as="targetPoint" />
          </mxGeometry>
        </mxCell>
        <mxCell id="qseJRWOYaKlsRWUmHyyh-48" value="" style="edgeStyle=elbowEdgeStyle;fontSize=12;html=1;endFill=0;startFill=0;endSize=6;startSize=6;dashed=1;dashPattern=1 4;endArrow=none;startArrow=none;rounded=0;exitX=1;exitY=0.5;exitDx=0;exitDy=0;" edge="1" parent="qseJRWOYaKlsRWUmHyyh-8" source="qseJRWOYaKlsRWUmHyyh-13">
          <mxGeometry width="160" relative="1" as="geometry">
            <mxPoint x="100" y="269.58000000000004" as="sourcePoint" />
            <mxPoint x="150" y="269.58000000000004" as="targetPoint" />
          </mxGeometry>
        </mxCell>
        <mxCell id="qseJRWOYaKlsRWUmHyyh-49" value="" style="edgeStyle=elbowEdgeStyle;fontSize=12;html=1;endFill=0;startFill=0;endSize=6;startSize=6;dashed=1;dashPattern=1 4;endArrow=none;startArrow=none;rounded=0;exitX=1;exitY=0.5;exitDx=0;exitDy=0;entryX=0;entryY=0.5;entryDx=0;entryDy=0;" edge="1" parent="qseJRWOYaKlsRWUmHyyh-8" source="qseJRWOYaKlsRWUmHyyh-15" target="qseJRWOYaKlsRWUmHyyh-14">
          <mxGeometry width="160" relative="1" as="geometry">
            <mxPoint x="260" y="-30" as="sourcePoint" />
            <mxPoint x="150" y="-130" as="targetPoint" />
          </mxGeometry>
        </mxCell>
        <mxCell id="qseJRWOYaKlsRWUmHyyh-60" value="" style="edgeStyle=elbowEdgeStyle;fontSize=12;html=1;endFill=0;startFill=0;endSize=6;startSize=6;dashed=1;dashPattern=1 4;endArrow=openThin;startArrow=none;rounded=0;exitX=0.5;exitY=1;exitDx=0;exitDy=0;entryX=0.5;entryY=0;entryDx=0;entryDy=0;entryPerimeter=0;" edge="1" parent="qseJRWOYaKlsRWUmHyyh-8" source="qseJRWOYaKlsRWUmHyyh-10" target="qseJRWOYaKlsRWUmHyyh-37">
          <mxGeometry width="160" relative="1" as="geometry">
            <mxPoint x="370" y="360" as="sourcePoint" />
            <mxPoint x="390" y="370" as="targetPoint" />
            <Array as="points">
              <mxPoint x="390" y="340" />
            </Array>
          </mxGeometry>
        </mxCell>
        <mxCell id="qseJRWOYaKlsRWUmHyyh-61" value="&quot;Produkt nicht im Sortiment&quot;-Benachrichtigung erstellen" style="points=[[0.25,0,0],[0.5,0,0],[0.75,0,0],[1,0.25,0],[1,0.5,0],[1,0.75,0],[0.75,1,0],[0.5,1,0],[0.25,1,0],[0,0.75,0],[0,0.5,0],[0,0.25,0]];shape=mxgraph.bpmn.task;whiteSpace=wrap;rectStyle=rounded;size=10;html=1;container=1;expand=0;collapsible=0;taskMarker=abstract;" vertex="1" parent="qseJRWOYaKlsRWUmHyyh-8">
          <mxGeometry x="335" y="20" width="120" height="80" as="geometry" />
        </mxCell>
        <mxCell id="qseJRWOYaKlsRWUmHyyh-62" value="Nein" style="edgeStyle=orthogonalEdgeStyle;rounded=0;orthogonalLoop=1;jettySize=auto;html=1;exitX=1;exitY=0.5;exitDx=0;exitDy=0;exitPerimeter=0;entryX=0.5;entryY=1;entryDx=0;entryDy=0;entryPerimeter=0;" edge="1" parent="qseJRWOYaKlsRWUmHyyh-8" source="qseJRWOYaKlsRWUmHyyh-16" target="qseJRWOYaKlsRWUmHyyh-61">
          <mxGeometry relative="1" as="geometry" />
        </mxCell>
        <mxCell id="qseJRWOYaKlsRWUmHyyh-68" style="edgeStyle=orthogonalEdgeStyle;rounded=0;orthogonalLoop=1;jettySize=auto;html=1;exitX=0.5;exitY=0;exitDx=0;exitDy=0;exitPerimeter=0;entryX=0;entryY=0.5;entryDx=0;entryDy=0;entryPerimeter=0;" edge="1" parent="qseJRWOYaKlsRWUmHyyh-8" source="qseJRWOYaKlsRWUmHyyh-31" target="qseJRWOYaKlsRWUmHyyh-35">
          <mxGeometry relative="1" as="geometry" />
        </mxCell>
        <mxCell id="qseJRWOYaKlsRWUmHyyh-69" style="edgeStyle=orthogonalEdgeStyle;rounded=0;orthogonalLoop=1;jettySize=auto;html=1;exitX=1;exitY=0.5;exitDx=0;exitDy=0;exitPerimeter=0;entryX=0.5;entryY=0;entryDx=0;entryDy=0;entryPerimeter=0;" edge="1" parent="qseJRWOYaKlsRWUmHyyh-8" source="qseJRWOYaKlsRWUmHyyh-35" target="qseJRWOYaKlsRWUmHyyh-41">
          <mxGeometry relative="1" as="geometry" />
        </mxCell>
        <mxCell id="qseJRWOYaKlsRWUmHyyh-70" style="edgeStyle=orthogonalEdgeStyle;rounded=0;orthogonalLoop=1;jettySize=auto;html=1;exitX=1;exitY=0.5;exitDx=0;exitDy=0;entryX=0.5;entryY=1;entryDx=0;entryDy=0;entryPerimeter=0;" edge="1" parent="qseJRWOYaKlsRWUmHyyh-8" source="qseJRWOYaKlsRWUmHyyh-34" target="qseJRWOYaKlsRWUmHyyh-41">
          <mxGeometry relative="1" as="geometry" />
        </mxCell>
        <mxCell id="qseJRWOYaKlsRWUmHyyh-66" value="Filiallager" style="shape=datastore;html=1;labelPosition=center;verticalLabelPosition=top;align=center;verticalAlign=bottom;" vertex="1" parent="qseJRWOYaKlsRWUmHyyh-8">
          <mxGeometry x="1010" y="50" width="50" height="50" as="geometry" />
        </mxCell>
        <mxCell id="qseJRWOYaKlsRWUmHyyh-71" value="" style="edgeStyle=elbowEdgeStyle;fontSize=12;html=1;endFill=0;startFill=0;endSize=6;startSize=6;dashed=1;dashPattern=1 4;endArrow=none;startArrow=none;rounded=0;exitX=0.5;exitY=0;exitDx=0;exitDy=0;entryX=0;entryY=0.5;entryDx=0;entryDy=0;" edge="1" parent="qseJRWOYaKlsRWUmHyyh-8" source="qseJRWOYaKlsRWUmHyyh-12" target="qseJRWOYaKlsRWUmHyyh-66">
          <mxGeometry width="160" relative="1" as="geometry">
            <mxPoint x="790" y="80" as="sourcePoint" />
            <mxPoint x="950" y="80" as="targetPoint" />
            <Array as="points">
              <mxPoint x="780" y="120" />
            </Array>
          </mxGeometry>
        </mxCell>
        <mxCell id="qseJRWOYaKlsRWUmHyyh-72" value="" style="edgeStyle=elbowEdgeStyle;fontSize=12;html=1;endFill=0;startFill=0;endSize=6;startSize=6;dashed=1;dashPattern=1 4;endArrow=none;startArrow=none;rounded=0;exitX=0.5;exitY=0;exitDx=0;exitDy=0;exitPerimeter=0;entryX=1;entryY=0.5;entryDx=0;entryDy=0;" edge="1" parent="qseJRWOYaKlsRWUmHyyh-8" source="qseJRWOYaKlsRWUmHyyh-35" target="qseJRWOYaKlsRWUmHyyh-66">
          <mxGeometry width="160" relative="1" as="geometry">
            <mxPoint x="890" y="80" as="sourcePoint" />
            <mxPoint x="1170" y="80" as="targetPoint" />
            <Array as="points">
              <mxPoint x="1440" y="75" />
            </Array>
          </mxGeometry>
        </mxCell>
        <mxCell id="qseJRWOYaKlsRWUmHyyh-1" value="Verkaufspersonal" style="swimlane;html=1;startSize=20;fontStyle=0;collapsible=0;horizontal=0;swimlaneLine=1;swimlaneFillColor=#ffffff;strokeWidth=2;whiteSpace=wrap;" vertex="1" parent="1">
          <mxGeometry x="30" y="310" width="1760" height="190" as="geometry" />
        </mxCell>
        <mxCell id="qseJRWOYaKlsRWUmHyyh-2" value="Bestellung erfassen" style="shape=ext;rounded=1;html=1;whiteSpace=wrap;" vertex="1" parent="qseJRWOYaKlsRWUmHyyh-1">
          <mxGeometry x="150" y="50" width="120" height="80" as="geometry" />
        </mxCell>
        <mxCell id="qseJRWOYaKlsRWUmHyyh-3" value="Kunde" style="swimlane;html=1;startSize=20;fontStyle=0;collapsible=0;horizontal=0;swimlaneLine=1;swimlaneFillColor=#ffffff;strokeWidth=2;whiteSpace=wrap;" vertex="1" parent="1">
          <mxGeometry x="30" y="170" width="1760" height="150" as="geometry" />
        </mxCell>
        <mxCell id="qseJRWOYaKlsRWUmHyyh-4" value="Bestellungsanfrage" style="points=[[0.145,0.145,0],[0.5,0,0],[0.855,0.145,0],[1,0.5,0],[0.855,0.855,0],[0.5,1,0],[0.145,0.855,0],[0,0.5,0]];shape=mxgraph.bpmn.event;html=1;verticalLabelPosition=top;labelBackgroundColor=#ffffff;verticalAlign=bottom;align=center;perimeter=ellipsePerimeter;outlineConnect=0;aspect=fixed;outline=standard;symbol=message;labelPosition=center;" vertex="1" parent="qseJRWOYaKlsRWUmHyyh-3">
          <mxGeometry x="185" y="60" width="50" height="50" as="geometry" />
        </mxCell>
        <mxCell id="qseJRWOYaKlsRWUmHyyh-5" value="Bestellbestätigung erhalten" style="points=[[0.145,0.145,0],[0.5,0,0],[0.855,0.145,0],[1,0.5,0],[0.855,0.855,0],[0.5,1,0],[0.145,0.855,0],[0,0.5,0]];shape=mxgraph.bpmn.event;html=1;verticalLabelPosition=top;labelBackgroundColor=#ffffff;verticalAlign=bottom;align=center;perimeter=ellipsePerimeter;outlineConnect=0;aspect=fixed;outline=throwing;symbol=general;labelPosition=center;" vertex="1" parent="qseJRWOYaKlsRWUmHyyh-3">
          <mxGeometry x="595" y="60" width="50" height="50" as="geometry" />
        </mxCell>
        <mxCell id="qseJRWOYaKlsRWUmHyyh-6" value="Rechnung erhalten" style="points=[[0.145,0.145,0],[0.5,0,0],[0.855,0.145,0],[1,0.5,0],[0.855,0.855,0],[0.5,1,0],[0.145,0.855,0],[0,0.5,0]];shape=mxgraph.bpmn.event;html=1;verticalLabelPosition=top;labelBackgroundColor=#ffffff;verticalAlign=bottom;align=center;perimeter=ellipsePerimeter;outlineConnect=0;aspect=fixed;outline=throwing;symbol=general;labelPosition=center;" vertex="1" parent="qseJRWOYaKlsRWUmHyyh-3">
          <mxGeometry x="1525" y="60" width="50" height="50" as="geometry" />
        </mxCell>
        <mxCell id="qseJRWOYaKlsRWUmHyyh-7" value="Bestellung erhalten" style="points=[[0.145,0.145,0],[0.5,0,0],[0.855,0.145,0],[1,0.5,0],[0.855,0.855,0],[0.5,1,0],[0.145,0.855,0],[0,0.5,0]];shape=mxgraph.bpmn.event;html=1;verticalLabelPosition=top;labelBackgroundColor=#ffffff;verticalAlign=bottom;align=center;perimeter=ellipsePerimeter;outlineConnect=0;aspect=fixed;outline=end;symbol=terminate2;labelPosition=center;" vertex="1" parent="qseJRWOYaKlsRWUmHyyh-3">
          <mxGeometry x="1670" y="60" width="50" height="50" as="geometry" />
        </mxCell>
        <mxCell id="qseJRWOYaKlsRWUmHyyh-63" value="Bestellung abgebrochen" style="points=[[0.145,0.145,0],[0.5,0,0],[0.855,0.145,0],[1,0.5,0],[0.855,0.855,0],[0.5,1,0],[0.145,0.855,0],[0,0.5,0]];shape=mxgraph.bpmn.event;html=1;verticalLabelPosition=top;labelBackgroundColor=#ffffff;verticalAlign=bottom;align=center;perimeter=ellipsePerimeter;outlineConnect=0;aspect=fixed;outline=end;symbol=terminate2;labelPosition=center;" vertex="1" parent="qseJRWOYaKlsRWUmHyyh-3">
          <mxGeometry x="370" y="60" width="50" height="50" as="geometry" />
        </mxCell>
        <mxCell id="qseJRWOYaKlsRWUmHyyh-50" style="edgeStyle=orthogonalEdgeStyle;rounded=0;orthogonalLoop=1;jettySize=auto;html=1;exitX=0.5;exitY=1;exitDx=0;exitDy=0;exitPerimeter=0;entryX=0.5;entryY=0;entryDx=0;entryDy=0;" edge="1" parent="1" source="qseJRWOYaKlsRWUmHyyh-4" target="qseJRWOYaKlsRWUmHyyh-2">
          <mxGeometry relative="1" as="geometry" />
        </mxCell>
        <mxCell id="qseJRWOYaKlsRWUmHyyh-51" style="edgeStyle=orthogonalEdgeStyle;rounded=0;orthogonalLoop=1;jettySize=auto;html=1;exitX=0.5;exitY=1;exitDx=0;exitDy=0;entryX=0.5;entryY=0;entryDx=0;entryDy=0;" edge="1" parent="1" source="qseJRWOYaKlsRWUmHyyh-2" target="qseJRWOYaKlsRWUmHyyh-14">
          <mxGeometry relative="1" as="geometry" />
        </mxCell>
        <mxCell id="qseJRWOYaKlsRWUmHyyh-52" value="Bestellbestätigung" style="endArrow=blockThin;html=1;labelPosition=center;verticalLabelPosition=top;align=center;verticalAlign=bottom;dashed=1;dashPattern=8 4;endFill=0;startArrow=oval;startFill=0;endSize=6;startSize=4;rounded=0;entryX=0.5;entryY=1;entryDx=0;entryDy=0;entryPerimeter=0;exitX=0.5;exitY=0;exitDx=0;exitDy=0;" edge="1" parent="1">
          <mxGeometry x="0.0649" relative="1" as="geometry">
            <mxPoint x="649.71" y="665" as="sourcePoint" />
            <mxPoint x="649.71" y="280" as="targetPoint" />
            <mxPoint as="offset" />
          </mxGeometry>
        </mxCell>
        <mxCell id="qseJRWOYaKlsRWUmHyyh-53" value="" style="shape=message;html=1;outlineConnect=0;labelPosition=left;verticalLabelPosition=middle;align=right;verticalAlign=middle;spacingRight=5;labelBackgroundColor=#ffffff;" vertex="1" parent="qseJRWOYaKlsRWUmHyyh-52">
          <mxGeometry width="24" height="16" relative="1" as="geometry">
            <mxPoint x="8" y="-13" as="offset" />
          </mxGeometry>
        </mxCell>
        <mxCell id="qseJRWOYaKlsRWUmHyyh-54" value="Rechnung" style="endArrow=blockThin;html=1;labelPosition=center;verticalLabelPosition=top;align=center;verticalAlign=bottom;dashed=1;dashPattern=8 4;endFill=0;startArrow=oval;startFill=0;endSize=6;startSize=4;rounded=0;entryX=0.5;entryY=1;entryDx=0;entryDy=0;entryPerimeter=0;exitX=0.5;exitY=0;exitDx=0;exitDy=0;" edge="1" parent="1" source="qseJRWOYaKlsRWUmHyyh-34" target="qseJRWOYaKlsRWUmHyyh-6">
          <mxGeometry x="0.4286" y="-10" relative="1" as="geometry">
            <mxPoint x="1030" y="570" as="sourcePoint" />
            <mxPoint x="1190" y="570" as="targetPoint" />
            <mxPoint as="offset" />
          </mxGeometry>
        </mxCell>
        <mxCell id="qseJRWOYaKlsRWUmHyyh-55" value="" style="shape=message;html=1;outlineConnect=0;labelPosition=left;verticalLabelPosition=middle;align=right;verticalAlign=middle;spacingRight=5;labelBackgroundColor=#ffffff;" vertex="1" parent="qseJRWOYaKlsRWUmHyyh-54">
          <mxGeometry width="24" height="16" relative="1" as="geometry">
            <mxPoint x="10" y="-112" as="offset" />
          </mxGeometry>
        </mxCell>
        <mxCell id="qseJRWOYaKlsRWUmHyyh-56" style="edgeStyle=orthogonalEdgeStyle;rounded=0;orthogonalLoop=1;jettySize=auto;html=1;exitX=1;exitY=0.5;exitDx=0;exitDy=0;exitPerimeter=0;entryX=0.5;entryY=1;entryDx=0;entryDy=0;entryPerimeter=0;" edge="1" parent="1" source="qseJRWOYaKlsRWUmHyyh-41" target="qseJRWOYaKlsRWUmHyyh-7">
          <mxGeometry relative="1" as="geometry" />
        </mxCell>
        <mxCell id="qseJRWOYaKlsRWUmHyyh-58" value="Bestellprozess" style="text;html=1;align=left;verticalAlign=middle;whiteSpace=wrap;rounded=0;fontSize=24;fontStyle=1" vertex="1" parent="1">
          <mxGeometry x="30" y="120" width="200" height="50" as="geometry" />
        </mxCell>
        <mxCell id="qseJRWOYaKlsRWUmHyyh-73" value="" style="endArrow=blockThin;html=1;labelPosition=left;verticalLabelPosition=middle;align=right;verticalAlign=middle;dashed=1;dashPattern=8 4;endFill=0;startArrow=oval;startFill=0;endSize=6;startSize=4;rounded=0;entryX=0.5;entryY=1;entryDx=0;entryDy=0;entryPerimeter=0;exitX=0.5;exitY=0;exitDx=0;exitDy=0;exitPerimeter=0;" edge="1" parent="1" source="qseJRWOYaKlsRWUmHyyh-61" target="qseJRWOYaKlsRWUmHyyh-63">
          <mxGeometry relative="1" as="geometry">
            <mxPoint x="425" y="510" as="sourcePoint" />
            <mxPoint x="423" y="310" as="targetPoint" />
          </mxGeometry>
        </mxCell>
        <mxCell id="qseJRWOYaKlsRWUmHyyh-74" value="&quot;Produkt nicht im Sortiment&quot; - Benachrichtigung" style="shape=message;html=1;outlineConnect=0;labelPosition=center;verticalLabelPosition=top;align=center;verticalAlign=bottom;spacingRight=5;labelBackgroundColor=#ffffff;" vertex="1" parent="qseJRWOYaKlsRWUmHyyh-73">
          <mxGeometry width="24" height="16" relative="1" as="geometry">
            <mxPoint x="8" y="-8" as="offset" />
          </mxGeometry>
        </mxCell>
      </root>
    </mxGraphModel>
  </diagram>
</mxfile>
